<svg width="1024" height="1024" viewBox="0 0 1024 1024" fill="none" xmlns="http://www.w3.org/2000/svg">
  <defs>
    <linearGradient id="bg" x1="162" y1="92" x2="870" y2="936" gradientUnits="userSpaceOnUse">
      <stop stop-color="#151A20"/>
      <stop offset="0.56" stop-color="#0B1115"/>
      <stop offset="1" stop-color="#07090C"/>
    </linearGradient>
    <radialGradient id="glow" cx="0" cy="0" r="1" gradientUnits="userSpaceOnUse" gradientTransform="translate(310 218) rotate(54) scale(630 560)">
      <stop stop-color="#18D6C7" stop-opacity="0.42"/>
      <stop offset="0.36" stop-color="#18D6C7" stop-opacity="0.12"/>
      <stop offset="1" stop-color="#18D6C7" stop-opacity="0"/>
    </radialGradient>
    <linearGradient id="ribbon" x1="320" y1="250" x2="742" y2="784" gradientUnits="userSpaceOnUse">
      <stop stop-color="#FFF9EB"/>
      <stop offset="0.58" stop-color="#F2E7D3"/>
      <stop offset="1" stop-color="#DCCDB8"/>
    </linearGradient>
    <linearGradient id="return" x1="286" y1="284" x2="756" y2="700" gradientUnits="userSpaceOnUse">
      <stop stop-color="#45F4DF"/>
      <stop offset="1" stop-color="#0FAF9F"/>
    </linearGradient>
    <filter id="softShadow" x="190" y="174" width="650" height="690" filterUnits="userSpaceOnUse" color-interpolation-filters="sRGB">
      <feDropShadow dx="0" dy="22" stdDeviation="28" flood-color="#000000" flood-opacity="0.34"/>
    </filter>
    <filter id="accentShadow" x="200" y="158" width="666" height="676" filterUnits="userSpaceOnUse" color-interpolation-filters="sRGB">
      <feDropShadow dx="0" dy="10" stdDeviation="18" flood-color="#10B8A7" flood-opacity="0.24"/>
    </filter>
  </defs>

  <rect x="64" y="64" width="896" height="896" rx="218" fill="url(#bg)"/>
  <rect x="64" y="64" width="896" height="896" rx="218" fill="url(#glow)"/>
  <rect x="66" y="66" width="892" height="892" rx="216" stroke="#FFFFFF" stroke-opacity="0.07" stroke-width="4"/>

  <g filter="url(#accentShadow)">
    <path
      d="M718 304C766 369 782 455 749 535C699 657 563 715 424 661"
      stroke="url(#return)"
      stroke-width="62"
      stroke-linecap="round"
      stroke-linejoin="round"/>
    <circle cx="424" cy="661" r="32" fill="#FFBE3D"/>
  </g>

  <g filter="url(#softShadow)">
    <path
      d="M336 746V304H552C668 304 740 366 740 460C740 558 661 620 540 620H336"
      stroke="url(#ribbon)"
      stroke-width="88"
      stroke-linecap="round"
      stroke-linejoin="round"/>
    <path
      d="M538 620L732 746"
      stroke="url(#ribbon)"
      stroke-width="88"
      stroke-linecap="round"
      stroke-linejoin="round"/>
  </g>
</svg>
